# Blender 3.5.1
# www.blender.org
o Fencing_low_M_Fencing_0
v -6.900000 -0.000000 0.002461
v 6.900000 -0.000000 0.002461
v 6.900000 5.500000 0.002461
v -6.900000 5.500000 0.002461
v -6.900000 0.000000 -0.002461
v -6.900000 5.500000 -0.002461
v 6.900000 5.500000 -0.002461
v 6.900000 0.000000 -0.002461
vn -0.0000 -0.0000 1.0000
vn -0.0000 -0.0000 -1.0000
vt -12.003229 0.496841
vt 12.990451 0.496838
vt 12.990449 -9.493368
vt -12.003229 -9.493365
vt -12.003228 0.503162
vt -12.003228 10.493368
vt 12.990451 10.493367
vt 12.990448 0.503162
s 0
f 1/1/1 2/2/1 3/3/1
f 1/1/1 3/3/1 4/4/1
f 5/5/2 6/6/2 7/7/2
f 5/5/2 7/7/2 8/8/2
